<svg width="302" height="302" viewBox="0 0 302 302" fill="none" xmlns="http://www.w3.org/2000/svg">
<g clip-path="url(#clip0_71_615)">
<path d="M0.145508 0H301.665V301.52H0.145508V0Z" fill="#EE1C25"/>
<path d="M120.753 61.8117L43.8658 111.562L75.5253 30.1521L102.662 111.562L30.2974 61.8117H120.753Z" fill="#FFFF00"/>
<path d="M139.467 19.4632L166.863 32.8815L138.186 37.8087L156.776 16.0934L154.986 45.291L139.467 19.4632Z" fill="#FFFF00"/>
<path d="M174.385 46.0573L194.414 69.0941L166.061 62.4698L191.652 49.6908L178.633 75.9084L174.385 46.0573Z" fill="#FFFF00"/>
<path d="M180.688 89.8264L189.57 119.049L166.381 101.416L194.975 100.2L172.373 118.826L180.688 89.8264Z" fill="#FFFF00"/>
<path d="M156.8 121.098L153.717 151.453L139.146 126.261L165.966 136.166L137.955 144.616L156.8 121.098Z" fill="#FFFF00"/>
</g>
<defs>
<clipPath id="clip0_71_615">
<rect width="301.52" height="301.52" fill="white" transform="translate(0.145508)"/>
</clipPath>
</defs>
</svg>
