<svg width="303" height="302" viewBox="0 0 303 302" fill="none" xmlns="http://www.w3.org/2000/svg">
<g clip-path="url(#clip0_71_606)">
<path d="M0.945801 0H302.919V301.973H0.945801V0Z" fill="#00008B"/>
<path d="M151.932 0V18.8733L95.9021 75.4932L151.932 130.639V150.986H132.174L75.8492 95.5461L20.9987 150.986H0.945801V130.934L55.7964 75.7881L0.945801 21.8223V0H19.2293L75.8492 55.4403L130.7 0H151.932Z" fill="white"/>
<path d="M55.2066 95.5461L58.4504 105.573L13.3314 150.986H0.945801V150.102L55.2066 95.5461ZM91.7736 92.0074L107.698 94.3665L151.932 137.716V150.986L91.7736 92.0074ZM151.932 0L95.3123 57.7995L94.1328 44.8241L138.367 0H151.932ZM0.945801 0.294895L57.8606 56.0301L40.4618 53.671L0.945801 14.4499V0.294895Z" fill="#FF0000"/>
<path d="M52.8474 0V150.986H100.031V0H52.8474ZM0.945801 51.9016V99.0849H151.932V51.9016H0.945801Z" fill="white"/>
<path d="M0.945801 61.3383V89.6482H151.932V61.3383H0.945801ZM62.2841 0V150.986H90.594V0H62.2841Z" fill="#FF0000"/>
<path d="M120.084 237.568L93.0712 240.753L95.7842 267.824L76.4391 248.715L56.976 267.706L59.8659 240.635L32.8535 237.214L55.7964 222.587L41.6414 199.349L67.3563 208.196L76.675 182.599L85.8167 208.255L111.591 199.585L97.2587 222.705L120.143 237.509L120.084 237.568ZM251.43 242.286L239.339 243.82L240.637 255.91L231.908 247.417L223.238 255.969L224.418 243.879L212.327 242.463L222.53 235.857L216.102 225.536L227.661 229.37L231.731 217.869L235.919 229.311L247.419 225.359L241.109 235.739L251.43 242.286ZM245.709 173.163L247.301 165.495L241.522 160.187L249.307 159.303L252.551 152.166L255.794 159.303L263.58 160.187L257.8 165.495L259.392 173.163L252.551 169.27L245.709 173.163ZM196.108 137.775L184.135 139.073L185.196 151.046L176.704 142.494L167.975 150.81L169.39 138.837L157.476 137.244L167.68 130.875L161.487 120.553L172.87 124.564L177.116 113.299L181.068 124.682L192.51 120.966L186.081 131.17L196.108 137.775ZM299.793 118.43L287.466 120.023L288.823 132.349L279.917 123.679L271.07 132.408L272.309 120.023L259.982 118.607L270.421 111.824L263.875 101.267L275.67 105.219L279.799 93.5409L284.045 105.219L295.782 101.149L289.295 111.765L299.793 118.43ZM251.371 69.1825L239.162 70.539L240.283 82.8067L231.613 74.0778L222.707 82.5708L224.123 70.3621L211.914 68.7107L222.353 62.223L216.043 51.6657L227.661 55.7353L231.967 44.2344L235.977 55.8533L247.655 52.0196L241.109 62.3999L251.371 69.1825Z" fill="white"/>
</g>
<defs>
<clipPath id="clip0_71_606">
<rect width="301.973" height="301.973" fill="white" transform="translate(0.945801)"/>
</clipPath>
</defs>
</svg>
