<?xml version="1.0" encoding="UTF-8"?>
<svg id="Layer_2" xmlns="http://www.w3.org/2000/svg" viewBox="0 0 687.6 367.94">
  <defs>
    <style>
      .cls-1 {
        fill: #1a1d22;
      }

      .cls-2 {
        fill: #ffc02e;
      }
    </style>
  </defs>
  <g id="Layer_1-2" data-name="Layer_1">
    <g>
      <path class="cls-2" d="M41.45,281.92c0-1.67-.01-3.33-.02-5,0-1.33,0-2.67,0-4,0-.67,0-1.33,0-2,.06-18.27.17-36.54.17-54.82,0-36.06-.06-72.13-.11-108.19,0-1.66-.15-3.31-.22-4.97-.16-3.46,1.28-5.62,4.44-7.43,11.39-6.52,22.6-13.34,33.81-20.17,6.41-3.9,12.69-8.03,19.7-12.48-16.22-9.72-31.53-18.9-46.84-28.07-3.96-2.63-7.91-5.26-11.87-7.89-.03-.65-.06-1.29-.09-1.94,0-.67-.01-1.34-.02-2.01,0-7.42,0-14.83,0-22.95,0,1.15,10.85,6.26,12.25,7.08,3.83,2.25,7.26,5,11.06,7.38,8.59,5.4,17.18,10.8,25.78,16.2,17.18,10.8,34.37,21.59,51.55,32.39,4.45,2.79-2.58,6.22-5.29,7.9-8.42,5.22-16.83,10.44-25.25,15.66-7.37,4.57-17.45,8.77-23.14,15.36-.04.33-.08.66-.12.99-.09,1.48-.26,2.97-.26,4.45-.04,34.88-.07,69.75-.06,104.63,0,9.62.16,19.24.24,28.86-.37,5.34-.51,10.69.14,16.02-.19,4.51,2.29,6.85,6.35,8.07,3.82,1.15,7.69,1.22,11.61.92,2.43,0,4.87.04,7.3.06,2.04.02,5.98-1.09,7.68.29-.48.91-1.91,1.49-2.77,2.04-1.22.78-2.44,1.56-3.67,2.34-2.45,1.55-4.92,3.07-7.4,4.57-10.23,6.19-20.6,12.21-31.06,18.02-2.41,1.36-4.79,1.92-7.54,1.9-8.12-.05-16.24.12-24.36.2-1.99-.37-1.51-2.15-1.94-3.41,0-1,0-2,.01-3-.01-1.67-.03-3.33-.04-5,0-.67,0-1.33-.01-2Z"/>
      <path d="M200.16,170.81c-.03-1.62-.06-3.25-.09-4.87.07-3.89.14-7.78.2-11.66,14.29-.06,28.57-.11,42.86-.19,1.06,0,1.96.22,2.74.91-.06,3.97-.31,7.94-.12,11.89.14,2.95-.62,4.22-3.81,4.01-3.28-.21-6.59.11-9.88.2-10.64-.1-21.27-.19-31.91-.29Z"/>
      <path class="cls-2" d="M41.9,331.66c-.58-.46-1-1.38-1.28-3.01-1.37-7.85,9.34-17.39,15.22-20.54,9.32-4.99,20.34-5.68,30.89-4.99,25.18,1.66,49.24,10.49,73.65,16.91,46.7,12.3,95.68,15.89,143.68,10.55,72.84-8.12,142.88-36.51,216.14-38.65,58.52-1.71,117.44,13.94,167.41,44.46-67.89-27.24-143.87-34.05-215.47-19.09-55.72,11.64-108.32,35.99-164.4,45.76-61.14,10.65-124.82,3.38-183.3-17.38-19.29-6.85-38.93-15.24-59.66-16.14-5.08-.22-10.19.01-15.2.91-3.83.69-6.23,2.32-7.66,1.2Z"/>
      <path d="M669.9,257.72c-.55.92-1.05,1.87-1.45,2.87-1.02,2.56-1.36,5.37-1.2,8.13.08,1.41.42,3.35-.42,4.61-.77,1.14-2.63,1.4-3.73.58-.52-.39-.75-1.07-.77-1.72s.13-1.29.25-1.93c.63-3.51.03-7.2-1.48-10.44-1.35-2.91-3.38-5.42-5.27-7.98s-3.26-5.42-4.91-8.18c1.5.07,3.04.14,4.42.73,2.24.97,3.7,3.14,4.87,5.28s2.22,4.44,4.08,6.02c.28.24.6.46.96.46.57,0,.98-.55,1.27-1.04.8-1.32,1.54-2.67,2.24-4.05,1.09-2.16,2.14-4.49,4.12-5.9,1.36-.97,3.68-1.71,5.31-1.06-.88,1.1-1.34,2.29-1.89,3.58-1.54,3.65-4.36,6.64-6.4,10.02Z"/>
      <path d="M314.98,192.01c11.21,0,22.42,0,33.63,0,.54,4.87.61,9.79.22,14.67-.07.82-.18,1.71-.76,2.28-.64.63-1.64.67-2.54.68-21.85.17-43.69.33-65.54.5-.94,0-1.94,0-2.7-.56-1.01-.73-1.21-2.13-1.32-3.37-.74-8.84-.69-17.72-.64-26.59.14-22.86.28-45.71.42-68.57,0-1.5.03-3.07.73-4.4,1.94-3.71,9.65-1.97,12.91-1.92,6.11.09,12.23.1,18.34.09,12.23-.03,24.45-.2,36.68-.19,1.13,0,2.43.08,3.12.98.49.64.51,1.5.52,2.31.02,4.05.04,8.09.06,12.14,0,.63-.02,1.33-.47,1.77-.44.44-1.13.47-1.76.47-15.96,0-31.91,0-47.87.01-1.16,0-2.52.1-3.15,1.08-.37.57-.37,1.3-.37,1.98.08,6.84.16,13.68.25,20.52,0,.57.02,1.18.32,1.67.57.93,1.86,1.04,2.95,1.04,13.74,0,27.48-.01,41.23-.02.53,0,1.1.01,1.51.34.55.44.6,1.24.6,1.95.02,3.69.03,7.37.05,11.06,0,.84,0,1.72-.42,2.44-.84,1.45-2.84,1.6-4.51,1.58-11.78-.14-23.56-.29-35.34-.43-2.55-.03-5.64.26-6.74,2.56-.48,1.01-.43,2.17-.37,3.29.29,5.29.57,10.57.86,15.86.06,1.15.15,2.39.86,3.3,1.07,1.39,3.09,1.51,4.84,1.51,4.79,0,9.58,0,14.38,0Z"/>
      <path class="cls-2" d="M188.61,238c1.66,7.32.05,17.24.05,24.66,0,9.09.01,18.17.01,27.26,0,1.59-.11,3.41-1.37,4.38-.88.68-2.08.72-3.19.73-15.57.16-31.14.33-46.7.49-7.78.08-15.57.16-23.35.24-8.17.09-15.21,1.92-23-1.07,15.72-10.24,31.63-20.19,47.71-29.86,8.22-4.94,16.49-9.8,24.8-14.58,7.51-4.32,16.4-11.37,24.73-13.49.12.41.23.82.32,1.24Z"/>
      <path d="M280.07,273.78c-.3-1.02.57-1.42,1.06-2.13.67-.97,1.08-2.24,1.59-3.31,1.18-2.49,2.36-4.97,3.54-7.46,2.36-4.97,4.72-9.94,7.07-14.92.42-.88.87-1.8,1.66-2.35s2.05-.59,2.62.19c.24.33.33.74.45,1.13.16.51.4.99.63,1.47,4.14,8.55,7.86,17.29,12.08,25.81.17.35.35.72.35,1.11,0,.92-1.01,1.57-1.93,1.53-2-.09-3.26-1.71-3.78-3.47-.43-1.44-.67-3.2-2-3.88-.55-.28-1.18-.31-1.79-.34-3.3-.14-6.6-.2-9.9-.19-2.42.01-3.85.35-4.41,2.85-.82,3.65-3.77,5.16-7.23,3.95ZM296.19,251.21c-2.39,4.24-4.38,7.54-5.3,11.33h10.23c-1.66-3.81-3.09-7.1-4.93-11.33Z"/>
      <path d="M422.82,104.18c.09,0,.18.02.27.03,2,.25,3.21,1.67,3.96,3.44,13.81,32.89,27.68,65.76,41.7,98.56,1.4,3.27.49,3.6-2.42,3.54-6.14-.14-12.28-.07-18.43-.09-.22-1.09-.29-2.23-1.27-2.99-1.58-5.85-3.82-11.44-6.51-16.87-.47-2.94-2.81-1.78-4.35-1.79-7.38-.04-14.75.04-22.13.05-5.29,0-17.34-2.48-21.65,1.09-1.14.95-1.68,2.42-2.16,3.83-.93,2.68-1.86,5.36-2.79,8.04-2.04,5.87-4.55,9.64-11.31,8.47-1.28-.22-2.64-.02-3.96,0q-7.4.13-6.86-6.57c6.14-8.37,8.71-18.4,12.75-27.74,9.54-22.06,18.83-44.23,28.2-66.36.51-1.21.88-2.49,1.32-3.73.81-.92,1.21-.93,2.45-.98,1.17-.05,2.34-.02,3.51.03,2.27.09,4.55.27,6.82.13.95-.06,1.91-.18,2.86-.1ZM416.61,129.35c-.78.5-1.19.61-1.29.86-5.31,12.7-10.54,25.42-15.91,38.09-1.01,2.37.08,2.48,1.88,2.48,10.4-.02,20.81-.01,31.97-.01-5.7-14.19-11.15-27.74-16.64-41.41Z"/>
      <path class="cls-1" d="M99.51,339.31c-.04.11-.08.22-.12.33-.13-.05-.27-.07-.36-.15-.03-.03.07-.21.11-.32l.38.14Z"/>
      <path class="cls-2" d="M25.7,34.1c.04-.06.07-.11.11-.17.46-.7.94-1.41,1.63-1.89,2.9-1.99,9.27,3.93,11.66,5.46l12.79,8.14,13.49,8.59,6.75,4.29c1.19.76,2.4,1.49,3.57,2.27,3.02,2.01-.03,3.04-2.22,4.39-2.67,1.64-5.33,3.27-8,4.9-5.34,3.26-10.68,6.52-16.03,9.76-10.56,6.41-21.15,12.79-31.75,19.13-1.3.78-3.61,3.08-5.26,2.23s-2.6-6.36-3.09-8.01c-.32-1.08-.63-2.21-.42-3.31.46-2.5,3.18-3.79,5.49-4.85,7.64-3.49,14.41-8.59,21.11-13.66,4.63-3.5-3.93-3.2-5.96-3.14-9.39.3-18.79.21-28.17-.26-.52-.03-1.4-.02-1.4-.02l7.83-11.59s17.99.3,26.99.44c1.4.02,4.06.34,3.67-1.35-.3-1.33-3.39-2.59-4.46-3.17-3.9-2.1-7.65-4.5-11.19-7.16-.8-.6-1.65-1.32-1.77-2.32-.1-.79.3-1.55.69-2.24,1.24-2.2,2.55-4.36,3.93-6.48Z"/>
      <path d="M534.64,105.31c2.55.43,5.09,1.03,7.61,1.83,5.75,1.85,11.21,4.96,15.06,9.61,13.42,16.24,5.85,43.98-13.89,51-4.66,1.66-3.56,3.06-1.49,5.84,8.68,11.65,17.26,23.38,26.73,36.25h-21.99c-2.29-.79-2.84-3.33-4.64-4.62-5.55-8.28-11.54-16.3-16.51-24.92-3.48-6.03-7.53-8.93-14.63-8.26-3.47.33-4.94.63-4.81,4.61.31,9.65.1,19.32.08,28.98,0,1.94.48,4.16-2.79,4.03-5.48-.22-10.96-.24-16.44-.35-.05-2.8-.11-5.59-.16-8.39,0-16.66,0-33.33,0-49.99,0-7.69.34-15.38.35-23.06,0-7.34-.58-14.76.05-22.08.04-.43.1-.89.41-1.18.38-.36.97-.31,1.49-.26,15.13,1.54,30.58-1.58,45.57.95ZM519.45,121.89c-4.37,0-7.36.07-10.35-.02-1.93-.06-3.13.25-3.1,2.66.11,9.49.06,18.98.07,28.48,0,1.39.02,2.84,1.93,2.79,8.6-.22,17.34,1.18,25.65-2.28,5.53-2.3,8.07-6.66,8.53-12.41.51-6.39-.77-11.9-6.46-16-5.5-3.96-11.62-2.97-16.27-3.21Z"/>
      <path d="M682.11,110.96c-.09,4.7-.31,9.4-.2,14.11.15,6.45-.06,12.9-.05,19.35.01,6.6.02,13.2.04,19.79.02,12.01.03,24.01.03,36.02,0,2.13.02,4.2.17,6.32.07.99-.05,2.08-.74,2.79-.22.23-.5.41-.81.46-.24.04-.48.01-.73,0-2.56-.15-5.03.6-7.64.28-2.23-.27-4.38-.95-6.36-2-4.34-2.3-7.61-6.18-10.33-10.18-6.12-9.01-13.72-17-20.68-25.43-8.42-11.25-17.14-22.26-27.02-33.96,0,23.29-.08,44.94.08,66.58.02,3.38-.64,4.74-4.29,4.51-4.29-.26-8.62.13-12.93.24-2.52-1.13-1.58-3.41-1.59-5.24,0-19.14.09-38.28-.18-57.41-.11-7.87-.15-15.74-.11-23.61.02-3.98.06-7.97.11-11.95.02-1.61-.12-3.2-.16-4.78-.03-1.3.45-2.36,1.82-2.63.98-.19,1.98.05,2.97.19,3.2.43,6.41-.32,9.61-.12,1.46.09,2.93.27,4.06,1.24s1.86,2.44,2.81,3.6c.33.57.6,1.19,1,1.69,16.69,20.96,33.4,41.91,50.1,62.87.39.49.71,1.13,1.38.68v-31.41c.07-11.41.31-22.82.13-34.22-.04-2.7.84-4.3,3.69-4.31,4.28,0,8.53.43,12.81-.03.78-.08,1.66-.17,2.28.32.74.57.78,1.65.76,2.59,0,1.23-.02,2.45-.04,3.68Z"/>
      <path d="M585.53,252.92c0-2.39-.01-4.78-.02-7.16,0-1.65,1.54-2.55,3.04-1.84.88.43,1.51,1.24,2.1,2.02,2.49,3.31,4.98,6.63,7.47,9.94.93,1.24,1.93,3.29,3.31,4.08s2.27-.45,2.94-1.52c2.74-4.34,5.84-8.44,8.67-12.73.76-1.15,1.63-2.12,3.13-2.07.64.02,1.3.35,1.56.93.14.31.14.66.15,1,.09,5.91.18,11.82.28,17.73.05,2.96.09,5.94-.16,8.89-.05.55-.11,1.12-.38,1.61-.4.73-1.27,1.17-2.1,1.08s-1.58-.67-1.89-1.45c-.22-.56-.22-1.17-.22-1.77,0-5.94,0-11.89.01-17.83-1.83,1.56-3.05,3.7-4.38,5.7-2.13,3.23-4.63,6.2-7.12,9.16-3.84-5.01-7.65-10.04-11.48-15.07,0,3.53,0,7.06,0,10.59,0,1.62,0,3.24,0,4.86,0,.98.5,3.81-.29,4.46-.54.44-1.18.79-1.87.86-1.76.17-2.71-1.48-2.71-3.03-.02-6.15-.03-12.3-.05-18.44Z"/>
      <path d="M490.38,249.61c4.89,7.71,2.94,17.82-4.6,22.15-3.13,1.79-6.58,2.04-10.06,2.5-2.01.27-3.99-.02-5.97.12-.64,0-2.69-.08-5.26-.1.02-5.57.07-18.08.07-18.08v-6.28s-.07-3.99-.07-6.53c3-.06,7.23.11,10.21,0,6.13-.22,12.09,1.11,15.69,6.22ZM469.65,258.93c.02,12.04,1.49,13.4,11.07,10.26,6.83-2.24,8.19-8.68,6.26-15.64-2.09-7.51-16.62-6.19-16.62-6.19,0,0-.71,10.74-.7,11.57Z"/>
      <path d="M416.07,244.02c1.93-.3,3.32-.04,4.28,2.13,3.75,8.46,7.75,16.82,11.57,25.25.39.86,1.82,2.23.03,2.87-1.41.51-3.26.95-4.23-1.22-.97-2.18-1.04-5.49-3.87-5.86-3.91-.51-8.08-.73-11.87.12-3.22.72-2.66,5.42-5.15,7.44-3.34.33-4.23-.28-2.64-3.94,3.88-8.97,9.02-17.38,11.87-26.79ZM422.95,262.91c-1.18-3.82-2.66-7.13-4.73-10.7-.66,1.12-1.16,1.77-1.46,2.49-1.07,2.55-4.08,5.74-2.83,7.44,1.73,2.34,5.67.62,9.02.76Z"/>
      <path d="M367.04,244.49c.07.04.14.07.21.11.93.53,1.74,1.23,2.63,1.82,1.08.72,2.05,1.69,1.22,3.04-1.88,3.05-4.54-.05-6.78-1.07-5.21-2.37-11.5-.78-14.76,3.69-3.24,4.45-2.8,11.32.96,15.2,3.98,4.1,9.98,4.7,15.02,1.26,1.9-1.3,3.72-2.88,5.15.04.99,2.01-.77,2.8-2.28,3.62-1.75.95-3.58,1.8-5.52,2.25-3.76.88-7.23.57-10.92-.55-1.7-.52-4.67-3.06-5.74-4.15-2.54-2.57-3.42-5.96-3.73-9.46-.38-4.22,1-8.22,3.72-11.45,2.03-2.41,4.7-4.21,7.71-5.13,2.26-.69,4.49-.67,6.82-.56,2.15.1,4.38.33,6.31,1.35Z"/>
      <path d="M546.66,274.68c-.65.11-1.32.07-1.98.03-2.5-.15-5.01-.21-7.52-.19-2.1.01-4.74.6-6.78.09-.86-.21-1.65-.7-2.43-1.09.5-.79.36-1.81.28-2.74-.11-1.44,0-2.88.07-4.32.35-7.37-.05-14.78-.24-22.15,0-.2,0-.43.15-.57.11-.1.28-.12.43-.13,6-.4,12.01-.5,18.02-.61.21,0,.44,0,.61.13.13.11.2.28.24.45.3,1.04.28,2.11.1,3.17-.06.37-.21.74-.52.96-.54.38-1.5.17-2.12.16-.98,0-1.96-.03-2.94-.05-1.96-.04-3.92-.11-5.87-.24-.55-.04-1.12-.08-1.66.08-.97.29-1.14.99-1.14,1.89,0,1.64,0,3.28,0,4.92,0,1.13.57,1.49,1.66,1.51,3.1.05,6.2.1,9.3.15.67.01,1.42.05,1.9.53.41.4.51,1.02.53,1.59.03.54-.02,1.14-.4,1.52-.33.32-.82.4-1.28.44-1.93.15-3.88-.1-5.82-.05-2.06.05-4.7.45-5.94,2.29s-.88,4.38-.21,6.43c.68,2.12,3.21,1.45,4.93,1.38,2.84-.11,5.68-.22,8.52-.33.3-.01.61-.02.88.11.29.14.48.42.66.69.3.47.57.97.66,1.52.19,1.16-.64,2.04-1.7,2.34-.13.04-.27.07-.4.09Z"/>
    </g>
  </g>
</svg>